HIERARCHY
ROOT Spine
{
    OFFSET 0.0 0.0 -0.0
    CHANNELS 6 Xposition Yposition Zposition Zrotation Xrotation Yrotation
    JOINT ShoulderCenter
    {
        OFFSET 0.0 34.94607925415039 0.0
        CHANNELS 3 Zrotation Xrotation Yrotation
        JOINT LeftShoulder
        {
            OFFSET 18.58734893798828 0.0 0.0
            CHANNELS 3 Zrotation Xrotation Yrotation
            JOINT LeftElbow
            {
                OFFSET 29.715782165527344 0.0 0.0
                CHANNELS 3 Zrotation Xrotation Yrotation
                JOINT LeftHand
                {
                    OFFSET 33.011051177978516 0.0 0.0
                    CHANNELS 3 Zrotation Xrotation Yrotation
                    End Site
                    {
                        OFFSET 13.204421043395996 0.0 0.0
                    }
                }
            }
        }
        JOINT RightShoulder
        {
            OFFSET -18.58734893798828 0.0 0.0
            CHANNELS 3 Zrotation Xrotation Yrotation
            JOINT RightElbow
            {
                OFFSET -29.715782165527344 0.0 0.0
                CHANNELS 3 Zrotation Xrotation Yrotation
                JOINT RightHand
                {
                    OFFSET -33.011051177978516 0.0 0.0
                    CHANNELS 3 Zrotation Xrotation Yrotation
                    End Site
                    {
                        OFFSET -13.204421043395996 0.0 0.0
                    }
                }
            }
        }
        End Site
        {
            OFFSET 0.0 13.978432655334473 0.0
        }
    }
    JOINT LeftHip
    {
        OFFSET 17.51252671325521 -17.51252671325521 0.0
        CHANNELS 3 Zrotation Xrotation Yrotation
        JOINT LeftKnee
        {
            OFFSET 0.0 -41.609214782714844 0.0
            CHANNELS 3 Zrotation Xrotation Yrotation
            JOINT LeftFoot
            {
                OFFSET 0.0 -44.24072265625 0.0
                CHANNELS 3 Zrotation Xrotation Yrotation
                End Site
                {
                    OFFSET 0.0 0.0 17.6962890625
                }
            }
        }
    }
    JOINT RightHip
    {
        OFFSET -17.51252671325521 -17.51252671325521 0.0
        CHANNELS 3 Zrotation Xrotation Yrotation
        JOINT RightKnee
        {
            OFFSET 0.0 -41.609214782714844 0.0
            CHANNELS 3 Zrotation Xrotation Yrotation
            JOINT RightFoot
            {
                OFFSET 0.0 -44.24072265625 0.0
                CHANNELS 3 Zrotation Xrotation Yrotation
                End Site
                {
                    OFFSET 0.0 0.0 17.6962890625
                }
            }
        }
    }
}
MOTION
Frames: 6
Frame Time: 0.03333333333333333
40.0 11.300000190734863 -61.599998474121094 0.1655979406133047 -5.776156455297493 -20.944534615034957 -1.255734239717512e-07 2.57767673791013e-07 1.2679232108933232 92.28896736958684 -8.455222992552853 172.60596238741675 -6.072171975089237e-07 3.339658943231427e-07 28.01017181647163 -6.858071031905708e-15 3.1805546814635168e-15 1.9034970910341308e-31 -98.70849519736718 -3.220023134543134 -164.86454099050485 6.150411704263115e-06 -2.831791969939658e-06 -35.5299952919234 5.5659706925611536e-15 -7.951386703658791e-16 -7.951386703658791e-16 -3.8293095361744203 0.7676883132572977 -14.23553426679753 7.399732482730726 11.822956576739818 -32.79914880606279 -4.344939012143125e-32 -7.951386703658792e-16 -6.2617170291312985e-15 -1.4954152932041345 3.8264881563803517 17.62457173456425 -6.1549553605326475 0.17573937636026185 0.40138299996585614 -7.951386703658791e-16 2.8449005436651414e-33 -4.0999337690740637e-16
39.89999771118164 11.300000190734863 -61.599998474121094 0.3302263302040655 -5.759551027051888 -20.709910928058598 -2.6052247086844852e-08 -1.2751556280242606e-07 0.738423233758182 92.13401845010651 -8.859172948909565 172.40343268988903 -4.171905655542374e-06 1.4319621813216717e-06 28.950421608491787 -7.653209702271585e-15 0.0 0.0 -98.74403853256521 -3.033232972125437 -165.09542606411617 -1.6258703987623209e-07 2.029670610809721e-06 -35.738865464696694 -5.9635400277440935e-15 0.0 0.0 -3.7976775165392107 0.6303582948049945 -13.691763262937382 7.352766173812775 11.741070432802976 -32.60048087192454 -7.951386703658792e-16 3.310429723537619e-32 -4.770832022195275e-15 -1.7268488111946068 4.018559165940932 17.872343790088944 -6.132579325354498 -0.1752235908442462 -0.4038391408658649 0.0 0.0 1.9878466759146985e-16
39.89999771118164 11.399999618530273 -61.599998474121094 0.49677058152386694 -5.611995944869294 -20.70998730345614 1.0997624065160013e-07 -5.942934458180673e-07 0.941900090544712 92.17929674946231 -9.436330497665715 172.535285312058 3.64513228145559e-06 -2.126328644851255e-06 29.421578556113214 -5.4665783587654186e-15 3.1805546814635164e-15 -3.1805546814635164e-15 -98.77344646495993 -3.9520856201754 -165.2812914768574 4.560985162324453e-08 4.586280480428392e-06 -36.294687838669574 -3.776908684237925e-15 -7.951386703658791e-16 -2.6207568644672815e-32 -3.773332873742915 0.48141329374835534 -13.810724391694393 7.230845122223387 11.696179628804169 -32.63472744043491 -7.951386703658794e-16 -7.951386703658794e-16 4.075085685625132e-15 -1.9280598012329029 4.07899286234208 18.365145754973117 -6.09320264654904 -0.7672917091047149 -1.7749227396910867 0.0 0.0 1.366644589691355e-16
39.79999923706055 11.399999618530273 -61.599998474121094 0.49677076464999803 -5.611996199068377 -20.591771823607196 -1.6580967260297e-07 -3.903343948990021e-07 0.8236847639106812 92.27584924682691 -9.855310185253428 172.46966838989033 -7.596656835102978e-07 2.234701864594322e-06 29.725621865538425 -9.442271710594815e-15 0.0 0.0 -98.6931195305226 -5.231882971864853 -165.78450586397386 -1.4954823548190665e-06 -3.4579886960770824e-06 -36.05262992010115 9.144094709207612e-15 7.951386703658791e-16 -3.1805546814635176e-15 -3.7238690881974907 0.3621760858434748 -13.38470576202049 7.191711226948606 11.853331104898315 -32.76399099817503 -1.5902773407317582e-15 -9.24161631154252e-32 6.659286364314237e-15 -1.8889205501289634 4.394617155910884 18.755647678193508 -6.225098761459801 -1.120838967475248 -2.5785145424856677 0.0 0.0 -1.0187714214062827e-15
39.70000076293945 11.399999618530273 -61.599998474121094 0.4967767969495277 -5.775964697798698 -20.328860244211263 5.468764743790795e-08 1.7680336149181984e-07 0.5849280140373695 92.16980796605519 -9.64234021414526 172.56024277704114 6.944554097418789e-06 4.254448019766365e-06 29.253065263263387 -1.0933156717530838e-15 0.0 0.0 -98.72403501220477 -6.774654717210937 -165.72914478973775 -4.558491535444776e-06 3.157497102051436e-06 -36.377801640126656 3.975693351829396e-16 0.0 0.0 -3.731334409278248 0.40548918614151813 -13.098356761958703 7.213878131917219 11.881184857058466 -32.70496845254908 0.0 0.0 3.478731682850721e-16 -2.0234340354400824 4.81751368678941 19.442512304760527 -6.112356937299271 -1.417900211730922 -3.2758522062785795 -2.694034605743505e-35 -2.4848083448933725e-17 -1.2424041724466862e-16
39.70000076293945 11.399999618530273 -61.599998474121094 0.496776843235938 -5.775964415750803 -20.353285816216612 -6.776626840592525e-08 -3.0754720368589924e-08 0.9018627100432962 92.26237605178379 -9.971084735661135 172.75551363092035 -3.4317235005874244e-06 -1.1494540787902382e-06 28.86164778796146 8.845917707820405e-15 0.0 0.0 -98.63710947634353 -7.243032179279751 -165.27222210866154 1.8241426873832436e-06 -6.16804348156391e-07 -36.876245021184154 3.9756933518293955e-16 7.951386703658791e-16 -2.758691436281349e-33 -3.731506424232601 0.40389820885854194 -13.120367861706685 7.204193472305325 11.887006094039847 -32.55493919857979 0.0 0.0 -3.578124016646456e-15 -2.0254909697387253 4.816650345075765 19.4670083135779 -6.112356937299271 -1.417900211730922 -3.2758522062785795 -2.694034605743505e-35 -2.4848083448933725e-17 -1.2424041724466862e-16
